<svg preserveAspectRatio="none" overflow="visible" style="display: block;" width="14.998" height="16.0003" viewBox="0 0 14.998 16.0003" fill="none" xmlns="http://www.w3.org/2000/svg">
<path id="Vector" d="M0.428977 8.65817L13.429 15.8582C13.579 15.9412 13.7546 15.9899 13.9367 15.9988C14.1188 16.0078 14.3004 15.9767 14.462 15.909C14.6237 15.8412 14.759 15.7394 14.8535 15.6146C14.9479 15.4897 14.9979 15.3465 14.998 15.2006V0.800534C14.9981 0.654515 14.9483 0.511254 14.8539 0.386277C14.7595 0.261301 14.6241 0.159375 14.4625 0.0915477C14.3009 0.0237199 14.1191 -0.00742339 13.9369 0.00149318C13.7547 0.0104098 13.5791 0.059046 13.429 0.142131L0.428977 7.34216C0.296536 7.41611 0.188374 7.51454 0.113688 7.6291C0.0390014 7.74366 0 7.87096 0 8.00016C0 8.12937 0.0390014 8.25666 0.113688 8.37122C0.188374 8.48578 0.296536 8.58422 0.428977 8.65817Z" fill="#2C1B17"/>
</svg>
